<?xml version="1.0" standalone="no"?>
<svg xmlns:xlink="http://www.w3.org/1999/xlink" id="wave" style="transform:rotate(0deg); transition: 0.3s" viewBox="0 0 1440 290" version="1.1" xmlns="http://www.w3.org/2000/svg"><defs><linearGradient id="sw-gradient-0" x1="0" x2="0" y1="1" y2="0"><stop stop-color="rgba(136, 61, 228, 0.72)" offset="0%"/><stop stop-color="rgba(166, 125, 217, 1)" offset="100%"/></linearGradient></defs><path style="transform:translate(0, 0px); opacity:1" fill="url(#sw-gradient-0)" d="M0,116L26.7,116C53.3,116,107,116,160,135.3C213.3,155,267,193,320,178.8C373.3,164,427,97,480,58C533.3,19,587,10,640,48.3C693.3,87,747,174,800,188.5C853.3,203,907,145,960,120.8C1013.3,97,1067,106,1120,120.8C1173.3,135,1227,155,1280,135.3C1333.3,116,1387,58,1440,43.5C1493.3,29,1547,58,1600,77.3C1653.3,97,1707,106,1760,116C1813.3,126,1867,135,1920,145C1973.3,155,2027,164,2080,154.7C2133.3,145,2187,116,2240,106.3C2293.3,97,2347,106,2400,101.5C2453.3,97,2507,77,2560,58C2613.3,39,2667,19,2720,24.2C2773.3,29,2827,58,2880,87C2933.3,116,2987,145,3040,169.2C3093.3,193,3147,213,3200,227.2C3253.3,242,3307,251,3360,256.2C3413.3,261,3467,261,3520,236.8C3573.3,213,3627,164,3680,120.8C3733.3,77,3787,39,3813,19.3L3840,0L3840,290L3813.3,290C3786.7,290,3733,290,3680,290C3626.7,290,3573,290,3520,290C3466.7,290,3413,290,3360,290C3306.7,290,3253,290,3200,290C3146.7,290,3093,290,3040,290C2986.7,290,2933,290,2880,290C2826.7,290,2773,290,2720,290C2666.7,290,2613,290,2560,290C2506.7,290,2453,290,2400,290C2346.7,290,2293,290,2240,290C2186.7,290,2133,290,2080,290C2026.7,290,1973,290,1920,290C1866.7,290,1813,290,1760,290C1706.7,290,1653,290,1600,290C1546.7,290,1493,290,1440,290C1386.7,290,1333,290,1280,290C1226.7,290,1173,290,1120,290C1066.7,290,1013,290,960,290C906.7,290,853,290,800,290C746.7,290,693,290,640,290C586.7,290,533,290,480,290C426.7,290,373,290,320,290C266.7,290,213,290,160,290C106.7,290,53,290,27,290L0,290Z"/><defs><linearGradient id="sw-gradient-1" x1="0" x2="0" y1="1" y2="0"><stop stop-color="rgba(243, 106, 62, 1)" offset="0%"/><stop stop-color="rgba(255, 179, 11, 1)" offset="100%"/></linearGradient></defs><path style="transform:translate(0, 50px); opacity:0.9" fill="url(#sw-gradient-1)" d="M0,145L26.7,154.7C53.3,164,107,184,160,193.3C213.3,203,267,203,320,203C373.3,203,427,203,480,174C533.3,145,587,87,640,82.2C693.3,77,747,126,800,164.3C853.3,203,907,232,960,203C1013.3,174,1067,87,1120,58C1173.3,29,1227,58,1280,58C1333.3,58,1387,29,1440,24.2C1493.3,19,1547,39,1600,58C1653.3,77,1707,97,1760,87C1813.3,77,1867,39,1920,19.3C1973.3,0,2027,0,2080,14.5C2133.3,29,2187,58,2240,82.2C2293.3,106,2347,126,2400,120.8C2453.3,116,2507,87,2560,67.7C2613.3,48,2667,39,2720,29C2773.3,19,2827,10,2880,24.2C2933.3,39,2987,77,3040,87C3093.3,97,3147,77,3200,91.8C3253.3,106,3307,155,3360,174C3413.3,193,3467,184,3520,159.5C3573.3,135,3627,97,3680,87C3733.3,77,3787,97,3813,106.3L3840,116L3840,290L3813.3,290C3786.7,290,3733,290,3680,290C3626.7,290,3573,290,3520,290C3466.7,290,3413,290,3360,290C3306.7,290,3253,290,3200,290C3146.7,290,3093,290,3040,290C2986.7,290,2933,290,2880,290C2826.7,290,2773,290,2720,290C2666.7,290,2613,290,2560,290C2506.7,290,2453,290,2400,290C2346.7,290,2293,290,2240,290C2186.7,290,2133,290,2080,290C2026.7,290,1973,290,1920,290C1866.7,290,1813,290,1760,290C1706.7,290,1653,290,1600,290C1546.7,290,1493,290,1440,290C1386.7,290,1333,290,1280,290C1226.7,290,1173,290,1120,290C1066.7,290,1013,290,960,290C906.7,290,853,290,800,290C746.7,290,693,290,640,290C586.7,290,533,290,480,290C426.7,290,373,290,320,290C266.7,290,213,290,160,290C106.7,290,53,290,27,290L0,290Z"/><defs><linearGradient id="sw-gradient-2" x1="0" x2="0" y1="1" y2="0"><stop stop-color="rgba(243, 106, 62, 1)" offset="0%"/><stop stop-color="rgba(255, 179, 11, 1)" offset="100%"/></linearGradient></defs><path style="transform:translate(0, 100px); opacity:0.8" fill="url(#sw-gradient-2)" d="M0,0L26.7,24.2C53.3,48,107,97,160,96.7C213.3,97,267,48,320,33.8C373.3,19,427,39,480,72.5C533.3,106,587,155,640,183.7C693.3,213,747,222,800,217.5C853.3,213,907,193,960,198.2C1013.3,203,1067,232,1120,217.5C1173.3,203,1227,145,1280,101.5C1333.3,58,1387,29,1440,38.7C1493.3,48,1547,97,1600,111.2C1653.3,126,1707,106,1760,120.8C1813.3,135,1867,184,1920,193.3C1973.3,203,2027,174,2080,159.5C2133.3,145,2187,145,2240,125.7C2293.3,106,2347,68,2400,87C2453.3,106,2507,184,2560,207.8C2613.3,232,2667,203,2720,169.2C2773.3,135,2827,97,2880,106.3C2933.3,116,2987,174,3040,203C3093.3,232,3147,232,3200,207.8C3253.3,184,3307,135,3360,96.7C3413.3,58,3467,29,3520,14.5C3573.3,0,3627,0,3680,43.5C3733.3,87,3787,174,3813,217.5L3840,261L3840,290L3813.3,290C3786.7,290,3733,290,3680,290C3626.7,290,3573,290,3520,290C3466.7,290,3413,290,3360,290C3306.7,290,3253,290,3200,290C3146.7,290,3093,290,3040,290C2986.7,290,2933,290,2880,290C2826.7,290,2773,290,2720,290C2666.7,290,2613,290,2560,290C2506.7,290,2453,290,2400,290C2346.7,290,2293,290,2240,290C2186.7,290,2133,290,2080,290C2026.7,290,1973,290,1920,290C1866.7,290,1813,290,1760,290C1706.7,290,1653,290,1600,290C1546.7,290,1493,290,1440,290C1386.7,290,1333,290,1280,290C1226.7,290,1173,290,1120,290C1066.7,290,1013,290,960,290C906.7,290,853,290,800,290C746.7,290,693,290,640,290C586.7,290,533,290,480,290C426.7,290,373,290,320,290C266.7,290,213,290,160,290C106.7,290,53,290,27,290L0,290Z"/></svg>